<svg width="22" height="22" viewBox="0 0 22 22" fill="none" xmlns="http://www.w3.org/2000/svg">
<path d="M18.334 2.75V10.0833" stroke="#4E2D2D" stroke-width="1.4" stroke-linecap="round" stroke-linejoin="round"/>
<path d="M20.1673 4.58333L18.334 2.75H3.66732H18.334H3.66732L1.83398 4.58333" stroke="#4E2D2D" stroke-width="1.4" stroke-linecap="round" stroke-linejoin="round"/>
<path d="M3.66602 2.75V17.4167C3.66602 17.9029 3.85917 18.3692 4.20299 18.713C4.5468 19.0568 5.01312 19.25 5.49935 19.25H7.33268" stroke="#4E2D2D" stroke-width="1.4" stroke-linecap="round" stroke-linejoin="round"/>
<path d="M4.04883 2.75L5.64346 5.14195C5.81088 5.39308 6.03771 5.59899 6.30381 5.7414C6.56992 5.88382 6.86707 5.95833 7.16889 5.95833H14.8315C15.1334 5.95833 15.4305 5.88382 15.6966 5.7414C15.9627 5.59899 16.1895 5.39308 16.357 5.14195L17.9516 2.75" stroke="#4E2D2D" stroke-width="1.4" stroke-linecap="round" stroke-linejoin="round"/>
<path d="M16.7185 20.1667H12.6136C12.4313 20.1667 12.2564 20.0942 12.1275 19.9653C11.9985 19.8364 11.9261 19.6615 11.9261 19.4792V18.6844C11.2253 18.2796 10.6184 17.7304 10.1459 17.0733C9.67336 16.4162 9.34588 15.6662 9.18517 14.8729C9.15596 14.7384 9.15708 14.5991 9.18845 14.4651C9.21981 14.3312 9.28064 14.2058 9.36651 14.0983C9.45238 13.9908 9.56112 13.9037 9.68485 13.8434C9.80858 13.7832 9.94417 13.7513 10.0818 13.75H19.2503C19.3879 13.7513 19.5235 13.7832 19.6472 13.8434C19.771 13.9037 19.8797 13.9907 19.9656 14.0983C20.0515 14.2058 20.1123 14.3311 20.1437 14.4651C20.1751 14.5991 20.1762 14.7384 20.147 14.8729C19.9862 15.6662 19.6588 16.4162 19.1862 17.0733C18.7136 17.7304 18.1068 18.2796 17.406 18.6844V19.4792C17.406 19.6615 17.3335 19.8364 17.2046 19.9653C17.0757 20.0942 16.9008 20.1667 16.7185 20.1667V20.1667Z" stroke="#4E2D2D" stroke-width="1.4" stroke-linecap="round" stroke-linejoin="round"/>
</svg>
